<svg xmlns="http://www.w3.org/2000/svg" width="288" height="258" viewBox="0 0 288 258" fill="none"><path d="M267.12 75.0722C259.661 73.6058 250.003 75.4299 244.125 80.1062C241.926 74.9059 238.837 68.7431 235.17 62.8373C227.475 50.4362 220.292 43.9912 213.812 43.6738C180.962 38.0703 119.261 38.0703 86.4112 43.6738C76.3144 44.1777 66.3806 59.829 61.11 69.6854C55.5525 65.6693 47.6381 63.1548 38.8687 63.1548C22.0894 63.1548 8.4375 72.346 8.4375 83.6487V198.02C8.4375 209.323 22.0894 218.514 38.8631 218.514C55.035 218.514 68.2931 209.973 69.2325 199.235C77.2538 198.494 85.4325 196.498 93.3694 194.553C103.269 192.13 113.507 189.625 123.261 189.625C130.084 189.625 136.598 190.502 141.609 192.094C144.006 192.86 146.576 192.543 148.658 191.228C150.739 189.912 151.931 187.851 151.931 185.569V181.311H207.714C209.346 181.311 210.842 182.062 211.714 183.316C212.333 184.203 213.413 184.742 214.577 184.742H225.664V191.092C225.664 197.678 231.643 203.034 238.995 203.034H254.807C262.159 203.034 268.138 197.678 268.138 191.092V163.639C268.746 159.522 269.072 155.118 269.072 150.603V111.797C269.072 111.056 268.768 110.346 268.223 109.791L257.181 98.6399C263.677 98.4988 269.753 97.5313 274.05 95.9339C277.284 94.7346 279.394 92.0488 279.546 88.9245C279.9 81.8447 275.254 76.6695 267.12 75.0722ZM151.926 156.629H191.391C192.066 156.629 192.566 156.831 193.011 157.279C193.461 157.728 193.624 158.197 193.551 158.796C193.298 160.782 191.424 162.278 189.191 162.278H151.926V156.629ZM151.926 124.445H180C180.377 124.445 180.692 124.727 180.692 125.065V127.64C180.692 131.454 177.227 134.558 172.974 134.558H151.931V124.445H151.926ZM150.879 85.5081C145.868 81.2349 135.467 78.5794 123.739 78.5794C112.933 78.5794 102.223 81.1342 91.8675 83.6083C86.0063 85.0042 80.3531 86.3546 74.8688 87.2163C76.9613 82.1521 79.8525 76.9417 81.225 74.5531C83.6325 70.3758 87.9638 63.9056 90.6188 61.5927C110.784 58.1913 134.196 57.7932 150.109 57.7932C166.022 57.7932 189.433 58.1913 209.599 61.5927C212.259 63.9056 216.591 70.3758 218.993 74.5531C220.821 77.7227 224.955 85.2208 226.822 91.2072C224.679 91.7011 222.182 91.9681 219.628 91.9681H151.926V87.7001C151.926 86.8686 151.549 86.0775 150.879 85.5081ZM38.8631 69.2017C51.9187 69.2017 62.5387 75.6819 62.5387 83.6487C62.5387 91.6154 51.9187 98.0956 38.8631 98.0956C25.8075 98.0956 15.1875 91.6154 15.1875 83.6487C15.1875 75.6819 25.8075 69.2017 38.8631 69.2017ZM38.8631 212.467C25.8075 212.467 15.1875 205.987 15.1875 198.02V96.4983C20.7675 101.154 29.3062 104.143 38.8631 104.143C48.42 104.143 56.9588 101.154 62.5387 96.4983V198.015C62.5444 205.987 51.9187 212.467 38.8631 212.467ZM145.176 185.569C145.176 185.891 145.058 186.103 144.759 186.284C144.461 186.476 144.208 186.506 143.865 186.395C138.15 184.576 130.832 183.578 123.261 183.578C112.607 183.578 101.925 186.194 91.5919 188.718C83.8463 190.613 76.4662 192.417 69.2887 193.147V93.9787C77.3213 93.3287 85.5788 91.3584 93.5944 89.4436C103.534 87.0702 113.811 84.6212 123.733 84.6212C133.897 84.6212 141.519 86.7729 145.176 89.116V185.569ZM254.807 196.982H238.995C235.367 196.982 232.414 194.337 232.414 191.087V184.737H256.387C258.334 184.737 260.094 184.067 261.388 182.893V191.087C261.388 194.342 258.435 196.982 254.807 196.982ZM262.322 150.598C262.322 161.956 260.212 172.397 256.674 178.534C256.601 178.66 256.539 178.69 256.382 178.69H216.247C214.093 176.519 211.016 175.264 207.709 175.264H151.926V168.325H189.191C194.861 168.325 199.62 164.521 200.256 159.476C200.548 157.148 199.789 154.997 198.045 153.248C196.307 151.5 194.001 150.577 191.385 150.577H151.92V140.6H172.963C180.939 140.6 187.431 134.785 187.431 127.635V125.06C187.431 121.386 184.095 118.393 179.989 118.393H151.92V98.01H219.628C224.28 98.01 228.724 97.2793 232.149 95.954C233.623 95.3846 234.444 93.9636 234.113 92.5527L233.938 91.822C232.301 84.9084 227.132 75.4954 224.983 71.7665C224.702 71.2778 218.036 59.7635 213.193 56.3772C212.771 56.085 212.276 55.8834 211.753 55.7927L211.466 55.7423C190.598 52.1495 166.444 51.7312 150.098 51.7312C133.751 51.7312 109.598 52.1495 88.7288 55.7423L88.4419 55.7927C87.9187 55.8834 87.4238 56.085 87.0019 56.3772C82.1644 59.7635 75.4931 71.2778 75.2119 71.7665C73.6481 74.4776 71.2575 78.8363 69.2663 83.3564C69.1987 80.1616 68.0456 77.1483 66.0431 74.4624C74.2894 58.2971 82.6819 49.7761 86.85 49.7005C87.0412 49.6954 87.2325 49.6803 87.4181 49.6451C119.048 44.1978 181.142 44.1978 212.771 49.6451C212.957 49.6753 213.148 49.6954 213.339 49.7005C216.247 49.7509 221.951 53.9988 229.253 65.765C235.136 75.2435 239.546 85.6038 240.711 90.532C240.834 91.046 241.099 91.5197 241.487 91.9127L262.299 112.931V150.598H262.322ZM272.801 88.6474C272.762 89.4335 272.284 90.0331 271.462 90.3405C267.581 91.7817 261.765 92.6081 255.499 92.6081C253.834 92.6081 252.405 92.5728 251.111 92.5023L247.134 88.4912C246.994 87.9571 246.814 87.3675 246.617 86.7578C249.503 82.3889 258.48 79.567 265.674 80.983C270.608 81.9454 273.004 84.5254 272.801 88.6474ZM242.184 159.356C242.184 161.023 240.671 162.379 238.809 162.379H222.491C220.629 162.379 219.116 161.023 219.116 159.356C219.116 157.688 220.629 156.332 222.491 156.332H238.809C240.671 156.332 242.184 157.688 242.184 159.356ZM203.799 117.788C200.497 118.393 198.174 121.023 198.281 124.042L198.304 124.692C198.54 131.439 204.863 136.927 212.394 136.927H236.616C243.523 136.927 249.328 132.089 249.823 125.916L250.453 118.096C250.628 115.919 249.716 113.928 247.888 112.487C246.06 111.046 243.737 110.492 241.346 110.93L203.799 117.788ZM243.433 117.027C243.669 117.214 243.742 117.375 243.72 117.657L243.09 125.478C242.842 128.557 240.058 130.875 236.616 130.875H212.394C208.536 130.875 205.172 127.952 205.054 124.495L205.031 123.845C205.031 123.765 205.065 123.724 205.149 123.709L242.702 116.846C243 116.801 243.202 116.846 243.433 117.027ZM38.8631 93.4647C47.3287 93.4647 53.9606 89.1513 53.9606 83.6487C53.9606 78.146 47.3287 73.8326 38.8631 73.8326C30.3975 73.8326 23.7656 78.146 23.7656 83.6487C23.7656 89.1513 30.3975 93.4647 38.8631 93.4647ZM38.8631 79.8794C43.9594 79.8794 47.2106 82.1117 47.2106 83.6487C47.2106 85.1856 43.9594 87.4179 38.8631 87.4179C33.7669 87.4179 30.5156 85.1856 30.5156 83.6487C30.5156 82.1117 33.7725 79.8794 38.8631 79.8794Z" fill="black"></path></svg>