<svg width="77" height="23" viewBox="0 0 77 23" fill="none" xmlns="http://www.w3.org/2000/svg">
<path d="M29.7241 0.384449C29.7241 0.384449 35.7776 0.378906 35.8144 0.378906C38.1127 0.401073 38.5071 2.28527 38.4861 3.38254C38.4545 5.29998 37.3133 5.7267 36.2141 6.01487C36.9977 7.21188 38.2757 8.86887 39.1014 10.0326H35.8302L32.6325 4.62388C32.6325 4.62388 34.1892 4.64051 34.9308 4.62388C36.1878 4.59617 36.151 2.39056 34.8993 2.39611H32.4221V10.0326H29.7241C29.7241 8.05977 29.7241 0.389992 29.7241 0.389992M3.73261 15.1865H5.26307C7.15116 15.1865 8.37658 15.99 8.37658 17.6581C8.37658 19.4869 7.36154 20.1907 5.26307 20.2294H3.73261M1.18711 22.2799H5.75219C8.9814 22.2799 10.9589 20.6672 10.9589 17.6692C10.9589 14.8373 9.0077 13.136 5.75219 13.136H1.18711V22.2744V22.2799ZM11.9582 22.3021H20.2205V20.2461H14.4616V18.5004H19.6052V16.6495H14.4616V15.0424H20.0733V13.1305H11.9529M21.2671 22.3409H23.6759V16.5996H23.7075L27.5625 22.3409H30.392V13.1305H28.0569V18.8052H27.7676L24.0966 13.1305H21.2671M60.3648 20.4345C58.5398 20.4345 57.8403 19.0269 57.8403 17.6193C57.8403 16.2117 58.5398 14.8041 60.3648 14.8041C62.1898 14.8041 62.8893 16.2117 62.8893 17.6193C62.8893 19.0269 62.1898 20.4345 60.3648 20.4345ZM55.0108 17.6193C55.0108 20.368 56.941 22.557 60.3596 22.557C63.7781 22.557 65.7135 20.368 65.7135 17.6193C65.7135 14.8706 63.7834 12.6816 60.3596 12.6816C56.9357 12.6816 55.0108 14.8706 55.0108 17.6193ZM32.238 22.3021H34.6468V16.5608H34.6784L38.5334 22.3021H41.3629V13.0917H39.0278V18.7664H38.7385L35.0676 13.0917H32.238M43.1564 22.3741H45.765V13.0972H43.1564V22.3741ZM47.1061 22.0305C47.9739 22.2965 49.1099 22.4351 50.025 22.4351C52.1971 22.4351 54.3324 21.7756 54.3324 19.3483C54.3324 15.9678 49.7042 16.9875 49.7042 15.4691C49.7042 14.6489 50.7981 14.5935 51.4555 14.5935C52.1971 14.5935 52.9544 14.7265 53.6276 15.0257L53.7959 13.0917C53.1385 12.8755 52.2129 12.7425 51.2715 12.7425C49.3097 12.7425 47.0114 13.3577 47.0114 15.6132C47.0114 19.0213 51.6396 17.9241 51.6396 19.6697C51.6396 20.4234 50.856 20.5841 50.025 20.5841C48.9469 20.5841 48.0054 20.3126 47.3322 19.969M66.9547 22.3131H69.3635V16.5719H69.395L73.2501 22.3131H76.0796V13.1028H73.7445V18.7775H73.4552L69.7842 13.1028H66.9547M6.30441 3.04449L6.33597 2.92811L7.56139 5.78211H5.15788M0.824219 9.97167H3.34869L4.27432 7.86027H8.43443L9.36533 9.97167H12.0476L7.90324 0.389992H4.96855L0.824219 9.97167ZM20.2258 0.389992H17.4594L15.0033 7.07334L12.3631 0.389992H9.59674L13.5465 9.97167H16.3234M48.768 0.389992H45.5704L43.4141 4.2803L41.263 0.389992H38.0654L42.0098 6.40279V9.97167H44.8288V6.40279M20.5361 10.0548H28.7669V7.9046H23.0343V6.07583H28.1568V4.13621H23.0343V2.45152H28.6249V0.445409H20.5361" fill="white"/>
</svg>
