<svg width="226" height="227" viewBox="0 0 226 227" fill="none" xmlns="http://www.w3.org/2000/svg">
<path fill-rule="evenodd" clip-rule="evenodd" d="M110.064 8.93897C110.064 7.22494 111.448 5.83545 113.154 5.83545C114.861 5.83545 116.244 7.22494 116.244 8.93897V100.87C116.244 102.584 114.861 103.974 113.154 103.974C111.448 103.974 110.064 102.584 110.064 100.87V8.93897Z" fill="#424852"/>
<path fill-rule="evenodd" clip-rule="evenodd" d="M113.128 11.8287C72.7685 11.7565 39.7142 43.3569 37.2817 83.2952C37.2684 83.5089 37.4044 83.6964 37.6105 83.7509C37.8193 83.8064 38.032 83.7057 38.1234 83.5093C40.6509 78.0547 47.7593 74.1336 56.1262 74.1487C65.2271 74.1651 72.8224 78.8328 74.6476 85.0451C74.7036 85.2362 74.8714 85.3625 75.0696 85.363C75.2682 85.3634 75.4364 85.2375 75.4929 85.0469C77.3406 78.8416 84.9522 74.2014 94.0531 74.2174C103.154 74.2338 110.749 78.9015 112.575 85.1134C112.631 85.3045 112.798 85.4308 112.997 85.4313C113.195 85.4317 113.363 85.3058 113.42 85.1147C115.268 78.9095 122.88 74.2692 131.98 74.2852C141.081 74.3016 148.676 78.9697 150.501 85.1812C150.557 85.3723 150.725 85.4987 150.923 85.4991C151.122 85.4995 151.29 85.3736 151.346 85.1825C153.194 78.9773 160.806 74.3366 169.907 74.353C178.274 74.3681 185.368 78.3149 187.876 83.7784C187.966 83.9748 188.179 84.0764 188.387 84.0218C188.593 83.9682 188.731 83.7802 188.718 83.5669C186.429 43.6207 153.487 11.9014 113.128 11.8287Z" fill="#F76C82"/>
<path fill-rule="evenodd" clip-rule="evenodd" d="M115.488 81.2078C118.761 77.0611 124.922 74.2728 131.98 74.2852C141.081 74.3016 148.676 78.9697 150.501 85.1812C150.557 85.3723 150.725 85.4986 150.923 85.4991C151.122 85.4995 151.29 85.3736 151.346 85.1825C153.194 78.9772 160.806 74.3366 169.907 74.353C178.274 74.3681 185.368 78.3149 187.876 83.7784C187.966 83.9748 188.179 84.0763 188.387 84.0218C188.571 83.9739 188.7 83.8196 188.717 83.6356C188.703 83.3927 188.688 83.1493 188.673 82.9067C188.653 82.6031 188.633 82.2989 188.609 81.9961C188.584 81.6649 188.554 81.335 188.524 81.0047C188.496 80.705 188.47 80.4049 188.44 80.106C188.406 79.7735 188.367 79.4428 188.328 79.1116C188.294 78.8172 188.261 78.5228 188.224 78.2293C188.18 77.8924 188.132 77.5572 188.085 77.2215C188.045 76.9369 188.007 76.6514 187.963 76.3676C187.911 76.028 187.854 75.6902 187.797 75.3519C187.751 75.0735 187.706 74.7942 187.657 74.5162C187.596 74.1739 187.529 73.8334 187.464 73.4925C187.412 73.2224 187.363 72.952 187.308 72.6829C187.235 72.3242 187.155 71.9677 187.077 71.6108C187.023 71.363 186.972 71.1143 186.916 70.8673C186.828 70.4825 186.733 70.1003 186.639 69.7173C186.585 69.4996 186.535 69.2801 186.48 69.0633C186.356 68.5778 186.225 68.095 186.092 67.6135C186.061 67.5031 186.033 67.3909 186.003 67.2805C185.836 66.6887 185.663 66.0999 185.483 65.5138C185.43 65.3448 185.374 65.1781 185.321 65.0097C185.19 64.5916 185.058 64.1735 184.92 63.7589C184.848 63.5444 184.771 63.3324 184.698 63.1187C184.573 62.7565 184.449 62.3934 184.319 62.0338C184.23 61.7873 184.136 61.543 184.045 61.2974C183.924 60.972 183.804 60.6461 183.678 60.3233C183.579 60.0684 183.475 59.8161 183.374 59.5625C183.249 59.2518 183.125 58.941 182.997 58.6324C182.891 58.377 182.78 58.1238 182.671 57.8698C182.54 57.5652 182.41 57.2606 182.276 56.9578C182.164 56.706 182.048 56.4564 181.933 56.2059C181.795 55.9048 181.657 55.6038 181.516 55.305C181.398 55.0562 181.277 54.8097 181.156 54.5628C181.012 54.2662 180.867 53.9691 180.719 53.6747C180.594 53.4273 180.467 53.1822 180.34 52.9365C180.19 52.6461 180.039 52.3562 179.886 52.0684C179.755 51.8233 179.621 51.5803 179.488 51.3365C179.331 51.0505 179.174 50.765 179.014 50.4817C178.878 50.24 178.739 49.9997 178.6 49.7599C178.437 49.4797 178.274 49.1995 178.108 48.9215C177.965 48.6816 177.82 48.4435 177.674 48.205C177.506 47.9301 177.337 47.6561 177.166 47.3835C177.016 47.1463 176.865 46.91 176.714 46.6745C176.541 46.4067 176.367 46.1398 176.191 45.8747C176.035 45.638 175.877 45.4025 175.717 45.168C175.539 44.9051 175.359 44.6435 175.177 44.3833C175.017 44.1527 174.855 43.923 174.692 43.6943C174.507 43.434 174.319 43.1751 174.13 42.9175C173.966 42.6927 173.8 42.4688 173.633 42.2458C173.44 41.9878 173.245 41.7315 173.048 41.4761C172.879 41.2567 172.71 41.0372 172.538 40.8191C172.341 40.5677 172.141 40.3185 171.94 40.0703C171.764 39.8521 171.588 39.634 171.409 39.4181C171.207 39.1733 171.002 38.9308 170.797 38.6887C170.616 38.4742 170.435 38.2596 170.251 38.0472C170.042 37.8065 169.83 37.5679 169.619 37.3298C169.434 37.1219 169.25 36.9135 169.063 36.7078C168.847 36.4693 168.627 36.2343 168.408 35.9984C168.22 35.7963 168.032 35.5932 167.842 35.3928C167.619 35.1587 167.393 34.9277 167.167 34.6963C166.976 34.5003 166.786 34.3035 166.593 34.1097C166.359 33.8747 166.121 33.6433 165.883 33.4114C165.694 33.227 165.507 33.0408 165.316 32.8581C165.072 32.6249 164.825 32.3953 164.578 32.1652C164.387 31.9869 164.197 31.8069 164.005 31.6309C163.75 31.3986 163.491 31.1707 163.234 30.9415C163.046 30.7743 162.859 30.605 162.669 30.4392C162.383 30.1895 162.092 29.9453 161.802 29.7001C161.637 29.5609 161.475 29.419 161.308 29.2807C160.97 28.9996 160.627 28.7238 160.284 28.4485C160.16 28.3492 160.038 28.2472 159.913 28.1488C159.445 27.7777 158.972 27.4123 158.495 27.0523C158.393 26.9756 158.289 26.902 158.187 26.8262C157.81 26.5451 157.433 26.2649 157.051 25.9905C156.874 25.8637 156.694 25.7409 156.517 25.6159C156.204 25.3955 155.892 25.1738 155.576 24.9583C155.385 24.8284 155.191 24.7025 154.999 24.574C154.693 24.3687 154.387 24.1625 154.077 23.9617C153.869 23.8269 153.658 23.6961 153.448 23.5631C153.153 23.376 152.859 23.1876 152.561 23.0045C152.336 22.8661 152.109 22.7327 151.883 22.5966C151.594 22.4228 151.306 22.2485 151.014 22.0787C150.781 21.9426 150.545 21.8105 150.31 21.677C150.024 21.5143 149.738 21.3507 149.45 21.1916C149.208 21.0586 148.965 20.9291 148.722 20.7987C148.434 20.644 148.146 20.4888 147.856 20.3377C147.611 20.21 147.363 20.0854 147.116 19.9599C146.826 19.8127 146.536 19.666 146.243 19.5223C145.992 19.3991 145.739 19.2789 145.487 19.1588C145.195 19.0195 144.902 18.8803 144.608 18.7447C144.353 18.6272 144.097 18.5123 143.841 18.398C143.544 18.265 143.247 18.1328 142.948 18.0038C142.69 17.8925 142.431 17.7835 142.172 17.6748C141.873 17.5494 141.573 17.4252 141.272 17.3037C141.01 17.1978 140.746 17.094 140.483 16.9912C140.181 16.8732 139.879 16.7571 139.575 16.6427C139.308 16.5421 139.04 16.4436 138.772 16.3465C138.469 16.2366 138.166 16.1288 137.862 16.0229C137.59 15.928 137.316 15.8345 137.043 15.7427C136.737 15.6403 136.431 15.5401 136.124 15.4412C135.851 15.3534 135.577 15.2665 135.302 15.1818C134.991 15.0861 134.68 14.9925 134.368 14.9007C134.091 14.8192 133.814 14.7385 133.535 14.66C133.224 14.5727 132.912 14.488 132.6 14.4042C132.319 14.3288 132.038 14.2539 131.755 14.1816C131.439 14.1009 131.121 14.0233 130.803 13.9466C130.524 13.8788 130.244 13.8114 129.963 13.7467C129.64 13.6726 129.316 13.6026 128.991 13.5325C128.711 13.4718 128.43 13.4111 128.148 13.3534C127.822 13.2869 127.495 13.2253 127.167 13.1628C126.885 13.1091 126.602 13.0546 126.319 13.004C125.985 12.9446 125.65 12.8901 125.315 12.8351C125.037 12.7895 124.759 12.7425 124.48 12.6999C124.137 12.6476 123.791 12.6006 123.446 12.5527C123.171 12.5146 122.896 12.4742 122.62 12.4392C122.272 12.3949 121.922 12.3567 121.572 12.3168C121.296 12.2854 121.021 12.2521 120.745 12.2237C120.391 12.1874 120.034 12.1581 119.679 12.1266C119.405 12.1027 119.132 12.0757 118.858 12.0548C118.477 12.0251 118.094 12.0034 117.712 11.9799C117.462 11.9644 117.214 11.9458 116.964 11.9329C116.54 11.9103 116.113 11.897 115.687 11.8819C115.474 11.8744 115.262 11.8637 115.049 11.8575C114.411 11.8389 113.77 11.8309 113.128 11.8296L117.422 48.7118L115.488 81.2078Z" fill="#4FC0E8"/>
<path fill-rule="evenodd" clip-rule="evenodd" d="M75.0696 85.3629C75.2642 85.3642 75.4355 85.2397 75.4929 85.0468C77.3402 78.8415 84.9522 74.2013 94.0531 74.2173C103.154 74.2337 110.749 78.9014 112.575 85.1133C112.631 85.3044 112.798 85.4307 112.997 85.4312L113.128 11.8291C89.4413 31.1015 74.8732 57.1333 75.0696 85.3629Z" fill="#FDCD56"/>
<path fill-rule="evenodd" clip-rule="evenodd" d="M112.997 85.4307C113.195 85.4311 113.363 85.3052 113.42 85.1141C115.267 78.9088 122.879 74.2686 131.98 74.2846C141.08 74.301 148.675 78.9691 150.501 85.1806C150.557 85.3717 150.724 85.4985 150.923 85.4985C151.22 57.2702 136.745 31.1865 113.128 11.8281L112.997 85.4307Z" fill="#C6EA94"/>
<path fill-rule="evenodd" clip-rule="evenodd" d="M87.054 115.335H112.813H138.571C141.906 115.335 144.743 117.35 145.855 120.507L157.716 154.243L113.224 162.782L67.8391 154.243L79.7699 120.506C80.8822 117.35 83.7196 115.335 87.054 115.335Z" fill="#D94452"/>
<path fill-rule="evenodd" clip-rule="evenodd" d="M74.3596 154.244L151.104 154.21L140.029 122.574C139.791 121.897 139.285 121.542 138.571 121.542L87.054 121.542C86.335 121.542 85.8331 121.905 85.593 122.584L74.3596 154.244Z" fill="#A4D4FF"/>
<path fill-rule="evenodd" clip-rule="evenodd" d="M167.74 145.354H163.465C160.733 145.354 158.497 147.6 158.497 150.345V152.384C158.497 155.129 160.733 157.374 163.465 157.374H167.74C170.472 157.374 172.708 155.129 172.708 152.384V150.345C172.708 147.6 170.472 145.354 167.74 145.354ZM57.8855 145.354H62.1605C64.8928 145.354 67.1286 147.6 67.1286 150.345V152.384C67.1286 155.129 64.8928 157.374 62.1605 157.374H57.8855C55.1532 157.374 52.9175 155.129 52.9175 152.384V150.345C52.9175 147.6 55.1532 145.354 57.8855 145.354Z" fill="#D94452"/>
<path fill-rule="evenodd" clip-rule="evenodd" d="M146.373 175.373H156.481C158.545 175.373 160.228 177.063 160.228 179.136V217.401C160.228 219.474 158.545 221.164 156.481 221.164H146.373C144.309 221.164 142.627 219.474 142.627 217.401V179.136C142.627 177.063 144.309 175.373 146.373 175.373ZM69.1439 175.177H79.2526C81.3157 175.177 82.9988 176.867 82.9988 178.94V217.205C82.9988 219.278 81.3157 220.968 79.2526 220.968H69.1439C67.0808 220.968 65.3977 219.278 65.3977 217.205V178.94C65.3981 176.867 67.0808 175.177 69.1439 175.177Z" fill="#424852"/>
<path fill-rule="evenodd" clip-rule="evenodd" d="M66.2395 154.244H159.386C164.64 154.244 168.939 158.561 168.939 163.838V191.174C168.939 196.451 164.64 200.769 159.386 200.769H66.2395C60.9854 200.769 56.687 196.451 56.687 191.174V163.838C56.6866 158.561 60.9854 154.244 66.2395 154.244Z" fill="#D94452"/>
<path fill-rule="evenodd" clip-rule="evenodd" d="M56.6637 191.857H168.961C171.025 191.857 172.708 193.548 172.708 195.62V198.216C172.708 200.288 171.025 201.978 168.961 201.978H56.6637C54.6001 201.978 52.9175 200.288 52.9175 198.216V195.62C52.9175 193.548 54.6006 191.857 56.6637 191.857Z" fill="#636C77"/>
<path fill-rule="evenodd" clip-rule="evenodd" d="M134.233 191.857H91.3923V170.37C91.3923 166.945 94.182 164.143 97.5919 164.143H128.033C131.443 164.143 134.233 166.945 134.233 170.37V191.857Z" fill="#424852"/>
<path fill-rule="evenodd" clip-rule="evenodd" d="M151.427 161.299C156.519 161.299 160.646 165.445 160.646 170.559C160.646 175.673 156.518 179.818 151.427 179.818C146.336 179.818 142.208 175.673 142.208 170.559C142.208 165.445 146.335 161.299 151.427 161.299ZM74.1985 161.299C79.2901 161.299 83.4173 165.445 83.4173 170.559C83.4173 175.673 79.2897 179.818 74.1985 179.818C69.1069 179.818 64.9797 175.673 64.9797 170.559C64.9797 165.445 69.1069 161.299 74.1985 161.299Z" fill="#F4F6F8"/>
</svg>
